0
SECTION
2
HEADER
9
$INSUNITS
70
4
9
$ACADVER
1
AC1014
9
$HANDSEED
5
FFFF
0
ENDSEC
0
SECTION
2
TABLES
0
TABLE
2
VPORT
5
8
100
AcDbSymbolTable
0
ENDTAB
0
TABLE
2
LTYPE
5
5
100
AcDbSymbolTable
0
LTYPE
5
14
100
AcDbSymbolTableRecord
100
AcDbLinetypeTableRecord
2
BYBLOCK
70
0
0
LTYPE
5
15
100
AcDbSymbolTableRecord
100
AcDbLinetypeTableRecord
2
BYLAYER
70
0
0
ENDTAB
0
TABLE
2
LAYER
5
2
100
AcDbSymbolTable
70
2
0
LAYER
5
50
100
AcDbSymbolTableRecord
100
AcDbLayerTableRecord
2
0
70
0
6
CONTINUOUS
0
ENDTAB
0
TABLE
2
STYLE
5
3
100
AcDbSymbolTable
70
1
0
STYLE
5
11
100
AcDbSymbolTableRecord
100
AcDbTextStyleTableRecord
2
STANDARD
70
0
0
ENDTAB
0
TABLE
2
VIEW
5
6
100
AcDbSymbolTable
70
0
0
ENDTAB
0
TABLE
2
UCS
5
7
100
AcDbSymbolTable
70
0
0
ENDTAB
0
TABLE
2
APPID
5
9
100
AcDbSymbolTable
70
2
0
APPID
5
12
100
AcDbSymbolTableRecord
100
AcDbRegAppTableRecord
2
ACAD
70
0
0
ENDTAB
0
TABLE
2
DIMSTYLE
5
A
100
AcDbSymbolTable
70
1
0
ENDTAB
0
TABLE
2
BLOCK_RECORD
5
1
100
AcDbSymbolTable
70
1
0
BLOCK_RECORD
5
1F
100
AcDbSymbolTableRecord
100
AcDbBlockTableRecord
2
*MODEL_SPACE
0
BLOCK_RECORD
5
1B
100
AcDbSymbolTableRecord
100
AcDbBlockTableRecord
2
*PAPER_SPACE
0
ENDTAB
0
ENDSEC
0
SECTION
2
BLOCKS
0
BLOCK
5
20
100
AcDbEntity
100
AcDbBlockBegin
2
*MODEL_SPACE
0
ENDBLK
5
21
100
AcDbEntity
100
AcDbBlockEnd
0
BLOCK
5
1C
100
AcDbEntity
100
AcDbBlockBegin
2
*PAPER_SPACE
0
ENDBLK
5
1D
100
AcDbEntity
100
AcDbBlockEnd
0
ENDSEC
0
SECTION
2
ENTITIES
0
LWPOLYLINE
5
100
100
AcDbEntity
8
0
100
AcDbPolyline
90
28
70
1
43
0.0
10
48.999998904764652
20
-12.599999718368053
10
48.999998904764652
20
-17.099999617785215
10
38.99999912828207
20
-17.099999617785215
10
38.99999912828207
20
-12.599999718368053
10
-10.99999975413084
20
-12.599999718368053
10
-10.99999975413084
20
-17.099999617785215
10
-20.999999530613422
20
-17.099999617785215
10
-20.999999530613422
20
-12.599999718368053
10
-31.499999295920134
20
-12.599999718368053
10
-31.499999295920134
20
-6.3499996177852127
10
-35.999999195337296
20
-6.3499996177852127
10
-35.999999195337296
20
3.6500003822147864
10
-31.499999295920134
20
3.6500003822147864
10
-31.499999295920134
20
9.8999997787177563
10
-20.999999195337303
20
9.9000003822147864
10
-20.999999195337303
20
5.4000003822147891
10
-10.999999195337304
20
5.4000003822147891
10
-10.999999195337304
20
9.9000003822147864
10
39.000000000000014
20
9.9000003822147864
10
39.000000000000014
20
5.4000003822147864
10
49.000000000000014
20
5.4000003822147864
10
49.000000000000014
20
9.9000003822147864
10
59.500000000000014
20
9.9000003822147864
10
59.500000000000014
20
3.6500003822147864
10
64.000000000000014
20
3.6500003822147855
10
64.000000000000014
20
-6.3499996177852145
10
59.499998670071363
20
-6.3499996177852145
10
59.500000886619091
20
-12.599999718368053
0
LWPOLYLINE
5
101
100
AcDbEntity
8
0
100
AcDbPolyline
90
4
70
1
43
0.0
10
5.0000008046627054
20
2.9000000948352378
10
-25.999999195337296
20
2.9000000948352378
10
-25.999999195337296
20
-10.099999905164763
10
5.0000008046627054
20
-10.099999905164763
0
CIRCLE
5
102
100
AcDbEntity
8
0
100
AcDbCircle
10
-23.499999195337296
20
-3.5999999051647622
30
0
40
1.7000000000000002
210
0
220
0
230
1
0
CIRCLE
5
103
100
AcDbEntity
8
0
100
AcDbCircle
10
2.5000008046627054
20
-3.5999999051647622
30
0
40
1.7000000000000002
210
0
220
0
230
1
0
LWPOLYLINE
5
104
100
AcDbEntity
8
0
100
AcDbPolyline
90
4
70
1
43
0.0
10
-0.49999919533729731
20
2.4000000948352387
10
-20.499999195337296
20
2.4000000948352396
10
-20.499999195337296
20
-9.5999999051647613
10
-0.49999919533729731
20
-9.5999999051647631
0
CIRCLE
5
105
100
AcDbEntity
8
0
100
AcDbCircle
10
15.000000804662704
20
-3.5999999051647622
30
0
40
1.5999999999999992
210
0
220
0
230
1
0
ENDSEC
0
SECTION
2
OBJECTS
0
DICTIONARY
5
C
100
AcDbDictionary
3
ACAD_GROUP
350
D
3
ACAD_MLINESTYLE
350
17
0
DICTIONARY
5
D
100
AcDbDictionary
0
DICTIONARY
5
1A
330
C
100
AcDbDictionary
0
DICTIONARY
5
17
100
AcDbDictionary
0
ENDSEC
0
EOF
